
<svg xmlns="http://www.w3.org/2000/svg" version="1.1" xmlns:xlink="http://www.w3.org/1999/xlink" preserveAspectRatio="none" x="0px" y="0px" width="20px" height="20px" viewBox="0 0 20 20">
<defs>
<g id="Layer0_0_FILL">
<path fill="#333333" stroke="none" d="
M 18.4 1.6
Q 17.85 1 17 1
L 3 1
Q 2.15 1 1.55 1.6 1 2.15 1 3
L 1 17
Q 1 17.85 1.55 18.45 2.15 19 3 19
L 10 19 10 12 8 12 8 9.55 10 9.55 10 7.5
Q 10 5.8 10.9 4.85 11.9 3.8 13.75 3.8
L 15.55 3.8 15.55 6.4 14.35 6.4
Q 13 6.4 13 7.85
L 13 9.55 15.55 9.55 15 12 13 12 13 19 17 19
Q 17.85 19 18.4 18.45 19 17.85 19 17
L 19 3
Q 19 2.2 18.4 1.6 Z"/>
</g>
</defs>

<g transform="matrix( 0.888885498046875, 0, 0, 0.888885498046875, 1.1,1.1) ">
<use xlink:href="#Layer0_0_FILL"/>
</g>
</svg>
