
<svg xmlns="http://www.w3.org/2000/svg" version="1.1" xmlns:xlink="http://www.w3.org/1999/xlink" preserveAspectRatio="none" x="0px" y="0px" width="20px" height="20px" viewBox="0 0 20 20">
<defs>
<g id="Layer0_0_MEMBER_0_FILL">
<path fill="#000000" stroke="none" d="
M 8.15 18.45
Q 8.75 19 9.6 19 10.5 19.05 11.1 18.5 11.7 18 11.75 17.05 11.75 16.15 11.2 15.55 10.6 15 9.7 14.95 8.85 14.9 8.25 15.45 7.65 16.05 7.6 16.95 7.55 17.85 8.15 18.45
M 15.8 5.9
Q 15.8 3.55 14.05 2.25 12.25 1 9.75 1 7.8 1 6.45 1.9 4.3 3.3 4.15 6.5
L 7.5 6.5
Q 7.5 5.45 8.05 4.7 8.6 3.8 9.9 3.8 11.3 3.8 11.75 4.5 12.3 5.3 12.3 6.1 12.3 6.6 11.7 7.5 11.4 7.95 11.05 8.15 9.25 9.3 8.5 10.25 8.05 10.7 7.95 12.7 7.95 12.95 8.25 12.95
L 10.8 12.95
Q 11.15 12.95 11.15 12.7 11.15 12.2 11.3 11.8 11.45 11.25 12.25 10.6
L 13.15 10
Q 14.65 8.85 14.95 8.4 15.8 7.3 15.8 5.9 Z"/>
</g>
</defs>

<g transform="matrix( 1, 0, 0, 1, 0,0) ">
<use xlink:href="#Layer0_0_MEMBER_0_FILL"/>
</g>
</svg>
