
<svg xmlns="http://www.w3.org/2000/svg" version="1.1" xmlns:xlink="http://www.w3.org/1999/xlink" preserveAspectRatio="none" x="0px" y="0px" width="20px" height="20px" viewBox="0 0 20 20">
<defs>
<g id="Layer0_0_FILL">
<path fill="#333333" stroke="none" d="
M 17.3 6.25
Q 18.4 5.55 19.15 4.3 18.2 4.75 17 4.9 18.25 4.2 18.65 2.8 17.65 3.45 16.25 3.75 15.2 2.55 13.5 2.55 11.95 2.55 10.85 3.65 9.75 4.75 9.75 6.3 9.75 6.9 9.85 7.2 5.05 6.9 2.05 3.25 1.55 4.15 1.55 5.15 1.55 7.15 3.2 8.3 2.2 8.2 1.5 7.8
L 1.5 7.85
Q 1.5 9.25 2.35 10.25 3.25 11.3 4.55 11.55 4.1 11.7 3.55 11.7
L 2.85 11.6
Q 3.2 12.75 4.15 13.45 5.1 14.2 6.35 14.25 4.25 15.85 1.65 15.85 1.05 15.85 0.75 15.8 3.4 17.5 6.55 17.5 11.45 17.5 14.55 14 17.3 10.85 17.3 6.75
L 17.3 6.25 Z"/>
</g>
</defs>

<g transform="matrix( 0.86956787109375, 0, 0, 0.86956787109375, 1.35,1.8) ">
<use xlink:href="#Layer0_0_FILL"/>
</g>
</svg>
