<?xml version="1.0" encoding="utf-8"?>
<!-- Generator: Adobe Illustrator 19.1.0, SVG Export Plug-In . SVG Version: 6.00 Build 0)  -->
<svg version="1.1" id="Layer_1" xmlns="http://www.w3.org/2000/svg" xmlns:xlink="http://www.w3.org/1999/xlink" x="0px" y="0px"
	 viewBox="-467 272 24 18" style="enable-background:new -467 272 24 18;" xml:space="preserve">
<style type="text/css">
	.st0{fill:#333333;}
</style>
<g transform="matrix( 0.0560150146484375, 0, 0, 0.0560455322265625, -5.15,-13.6) ">
	<g>
		<g id="Layer0_0_FILL">
			<path class="st0" d="M-8245.3,5371.6c0,10.2,1,17.4,2.9,21.6c2.7,6,7.8,8.9,15.5,8.9h391.6c7.7,0,12.9-3,15.5-8.9
				c1.9-4.3,2.9-11.5,2.9-21.6c0-10.2-0.9-17.4-2.9-21.6c-2.7-6-7.9-8.9-15.5-8.9h-391.6c-7.7,0-12.8,3-15.5,8.9
				C-8244.3,5354.2-8245.3,5361.4-8245.3,5371.6 M-7819.7,5227.6c-2.7-6-7.9-8.9-15.5-8.9h-391.6c-7.7,0-12.8,3-15.5,8.9
				c-1.9,4.2-2.9,11.4-2.9,21.6c0,10.2,1,17.4,2.9,21.6c2.7,6,7.8,8.9,15.5,8.9h391.6c7.7,0,12.9-3,15.5-8.9
				c1.9-4.3,2.9-11.5,2.9-21.6C-7816.9,5239-7817.8,5231.8-7819.7,5227.6 M-7816.9,5126.8c0-10.2-0.9-17.4-2.9-21.6
				c-2.7-6-7.9-9-15.5-9h-391.6c-7.7,0-12.8,3-15.5,9c-1.9,4.2-2.9,11.4-2.9,21.6c0,10.2,1,17.4,2.9,21.6c2.7,6,7.8,9,15.5,9h391.6
				c7.7,0,12.9-3,15.5-9C-7817.8,5144.2-7816.9,5137-7816.9,5126.8z"/>
		</g>
	</g>
</g>
</svg>
