
<svg xmlns="http://www.w3.org/2000/svg" version="1.1" xmlns:xlink="http://www.w3.org/1999/xlink" preserveAspectRatio="none" x="0px" y="0px" width="42px" height="40px" viewBox="0 0 42 40">
<defs>
<g id="Symbol_2_0_Layer0_0_FILL">
<path fill="#FFFFFF" stroke="none" d="
M 156.15 29.9
Q 131.25 5 96 5 74.2705078125 5 56.45 14.5 54.4845703125 10.255078125 50.8 6.05 48.6 3.55 45.8 1.05 44.75 3.6 44.05 6.05 41.3615234375 15.398046875 43.6 22.95 41.5779296875 24.6140625 39.6 26.4 38.2634765625 25.36171875 36.8 24.45 28.45 19.3 19.1 16.35 19.05 16.35 19 16.35 15.05 15.1 11 14.5 5.55 13.6 0 13.85 6.6 17.8 9.2 25.4 10.1 28 11 30.55 11.6 32.25 12.2 33.95 15.1859375 42.3806640625 22.55 46.8 11 66.0078125 11 90 11 125.2 35.9 150.15 60.85 175 96 175 131.25 175 156.15 150.15 181 125.2 181 90 181 54.8 156.15 29.9 Z"/>
</g>

<g id="Symbol_1_0_Layer0_0_FILL">
<path fill="#008000" stroke="none" d="
M 49.2 38.05
Q 48.1 35.45 46.65 33.2 42.9 27.2 36.8 23.4 28.45 18.25 19.1 15.3 15.1 14.05 11 13.45 5.55 12.55 0 12.8 6.6 16.75 9.2 24.35 10.1 26.95 11 29.5 11.6 31.2 12.2 32.9 15.6 42.5 24.7 46.9 25.05 47.1 25.45 47.25 34.95 51.55 44.9 49 46.95 48.4 48.2 46.9 48.85 46.1 49.3 45.05 50.7 41.6 49.2 38.05 Z"/>

<path fill="#01C201" stroke="none" d="
M 54.65 36.4
Q 65.8 17.7 45.8 0 36.7 22.45 53.5 35.65 54 36.1 54.65 36.4 Z"/>

<path fill="#FF8000" stroke="none" d="
M 45.65 112.2
Q 49.65 121.1 57.1 128.55 73.25 144.6 96 144.6 104.75 144.6 112.55 142.25 113.15 142.05 113.8 141.85 116.35 140.95 118.85 139.85 122.7 138.05 126.25 135.7 130.8 132.65 134.9 128.55 142.05 121.4 146.05 112.9 146.75 111.45 147.3 109.95 145.2 111.5 143.05 112.9 127.1 123.4 111.05 126.85 110 127.05 109 127.25 108.55 127.35 108.1 127.4 98.55 129.1 88.95 128.3 87.95 128.2 87 128.1 86.65 128.05 86.4 128.05 66.1 125.6 45.65 112.2 Z"/>

<path fill="#FFA601" stroke="none" d="
M 151 89.6
Q 151 66.85 134.9 50.7 134 49.8 133.1 48.95 134.95 52.5 134.95 56.5 134.95 65.15 126.25 71.6 124.85 72.6 123.3 73.55 111.7 80.6 95.3 80.6 78.9 80.6 67.25 73.55 65.7 72.6 64.35 71.6 55.65 65.15 55.65 56.5 55.65 53.95 56.4 51.6
L 56.25 51.6
Q 52.05 55.95 49.05 60.75
L 48.85 61.05
Q 42.5 71.3 41.3 83.7 41 86.6 41 89.6 41 101.85 45.65 112.2 66.1 125.6 86.4 128.05 86.65 128.05 87 128.1 87.95 128.2 88.95 128.3 98.55 129.1 108.1 127.4 108.55 127.35 109 127.25 110 127.05 111.05 126.85 127.1 123.4 143.05 112.9 145.2 111.5 147.3 109.95 148 108.2 148.55 106.45 151 98.55 151 89.6 Z"/>

<path fill="#FFD500" stroke="none" d="
M 117.8 41.1
Q 108.55 35.95 95.5 35.95 82.45 35.95 73.25 41.1 64 46.2 64 53.45 64 60.7 73.25 65.85 82.45 70.95 95.5 70.95 108.55 70.95 117.8 65.85 127 60.7 127 53.45 127 46.2 117.8 41.1 Z"/>
</g>

<path id="Symbol_2_0_Layer0_0_1_STROKES" stroke="#FFFFFF" stroke-width="19" stroke-linejoin="round" stroke-linecap="round" fill="none" d="
M 22.575 46.8
Q 15.1859375 42.3806640625 12.2 33.95 11.6 32.25 11 30.55 10.1 28 9.2 25.4 6.6 17.8 0 13.85 5.55 13.6 11 14.5 15.05 15.1 19 16.35 19.05 16.35 19.1 16.35 28.45 19.3 36.8 24.45 38.2634765625 25.36171875 39.6 26.4
M 43.625 22.975
Q 41.3615234375 15.398046875 44.05 6.05 44.75 3.6 45.8 1.05 48.6 3.55 50.8 6.05 54.4845703125 10.255078125 56.45 14.525"/>

<path id="Symbol_1_0_Layer0_0_1_STROKES" stroke="#333333" stroke-width="10" stroke-linejoin="round" stroke-linecap="round" fill="none" d="
M 72.45 23.8
Q 74.7 23 77 22.4 86 19.95 96 19.95 125 19.95 145.5 40.45 166 60.95 166 89.95 166 118.95 145.5 139.45 125 159.95 96 159.95 66.95 159.95 46.45 139.45 26 118.95 26 89.95 26 76.55 30.4 64.95 30.55 64.45 30.75 64 30.95 63.5 31.15 63"/>
</defs>

<g transform="matrix( 0.2209930419921875, 0, 0, 0.2205657958984375, 2.1,1.85) ">
<g transform="matrix( 1, 0, 0, 1, 0,0) ">
<use xlink:href="#Symbol_2_0_Layer0_0_FILL"/>

<use xlink:href="#Symbol_2_0_Layer0_0_1_STROKES"/>
</g>

<g transform="matrix( 1, 0, 0, 1, 0,0) ">
<g transform="matrix( 1, 0, 0, 1, 0,0) ">
<use xlink:href="#Symbol_1_0_Layer0_0_FILL"/>

<use xlink:href="#Symbol_1_0_Layer0_0_1_STROKES"/>
</g>
</g>
</g>
</svg>
